<svg width="1000" height="1000" viewBox="0 0 1000 1000" fill="none" xmlns="http://www.w3.org/2000/svg">
<rect width="1000" height="1000" fill="#030711"/>
<circle cx="499.5" cy="285.5" r="120.5" fill="white"/>
<circle cx="740.5" cy="713.5" r="120.5" fill="white"/>
<circle cx="258.5" cy="713.5" r="120.5" fill="white"/>
<path d="M421.933 441.5C423.314 439.109 422.495 436.051 420.103 434.67C417.712 433.289 414.654 434.109 413.273 436.5L417.603 439L421.933 441.5ZM335.17 574.707C335.885 577.374 338.627 578.957 341.294 578.242L384.761 566.595C387.428 565.881 389.011 563.139 388.296 560.472C387.582 557.804 384.84 556.221 382.173 556.936L343.536 567.289L333.183 528.652C332.468 525.985 329.726 524.402 327.059 525.116C324.392 525.831 322.809 528.573 323.524 531.24L335.17 574.707ZM417.603 439L413.273 436.5L335.67 570.913L340 573.413L344.33 575.913L421.933 441.5L417.603 439Z" fill="white"/>
<path d="M585.33 436.5C583.949 434.109 580.891 433.289 578.5 434.67C576.109 436.051 575.289 439.109 576.67 441.5L581 439L585.33 436.5ZM657.309 578.242C659.976 578.957 662.718 577.374 663.433 574.707L675.08 531.24C675.794 528.573 674.211 525.831 671.544 525.116C668.877 524.402 666.135 525.985 665.42 528.652L655.068 567.289L616.431 556.936C613.763 556.221 611.022 557.804 610.307 560.472C609.592 563.139 611.175 565.881 613.842 566.595L657.309 578.242ZM581 439L576.67 441.5L654.273 575.913L658.603 573.413L662.933 570.913L585.33 436.5L581 439Z" fill="white"/>
</svg>
